<svg width="28" height="28" viewBox="0 0 28 28" fill="none" xmlns="http://www.w3.org/2000/svg">
<path d="M22.54 11.1222C22.4745 9.01443 21.5801 7.01764 20.051 5.56545C18.5219 4.11327 16.4817 3.32297 14.3733 3.36619C12.6681 3.34596 10.9989 3.85785 9.59822 4.8306C8.19749 5.80336 7.13486 7.1886 6.55822 8.79352C4.76251 9.03631 3.11334 9.91485 1.91004 11.2697C0.706744 12.6246 0.0290651 14.3659 0 16.1777C0.0537714 18.2157 0.914218 20.1491 2.39236 21.5531C3.87051 22.9572 5.84549 23.7172 7.88356 23.6662H21.4978C23.1843 23.6241 24.7924 22.945 25.9986 21.7656C27.2049 20.5862 27.9199 18.9938 28 17.3086C27.9688 15.7982 27.4031 14.3478 26.4034 13.2151C25.4037 12.0824 24.0348 11.3408 22.54 11.1222Z" fill="url(#paint0_linear_149_62179)"/>
<path d="M20.0666 17.7333V12.4444H18.6666V18.8688H22.4933V17.7333H20.0666ZM8.95994 15.1355C8.67082 15.0194 8.40279 14.8565 8.1666 14.6533C8.10393 14.5869 8.05514 14.5087 8.02309 14.4232C7.99103 14.3377 7.97636 14.2467 7.97994 14.1555C7.97547 14.0642 7.9946 13.9733 8.03547 13.8916C8.07633 13.8099 8.13757 13.74 8.21327 13.6888C8.40474 13.5568 8.63426 13.4912 8.8666 13.5022C9.42063 13.4773 9.9674 13.6358 10.4222 13.9533V12.6155C9.92517 12.4306 9.39647 12.346 8.8666 12.3666C8.25633 12.3343 7.6547 12.5219 7.17105 12.8955C6.96027 13.058 6.79111 13.2683 6.67752 13.509C6.56394 13.7497 6.50916 14.0139 6.51771 14.28C6.51771 15.0733 7.01549 15.6955 8.07327 16.1622C8.41663 16.3083 8.74057 16.4964 9.03771 16.7222C9.11052 16.7831 9.16913 16.8593 9.20943 16.9453C9.24973 17.0312 9.27076 17.125 9.27105 17.22C9.27096 17.3143 9.24833 17.4073 9.20504 17.4912C9.16175 17.5751 9.09905 17.6474 9.02216 17.7022C8.8106 17.8265 8.56721 17.886 8.32216 17.8733C7.69648 17.8681 7.09397 17.636 6.6266 17.22V18.6666C7.14038 18.9313 7.71344 19.0598 8.29105 19.04C8.94309 19.079 9.5894 18.8982 10.1266 18.5266C10.3164 18.3469 10.4616 18.1253 10.5507 17.8796C10.6399 17.6338 10.6704 17.3707 10.6399 17.1111C10.6477 16.7128 10.5094 16.3254 10.251 16.0222C9.88745 15.6395 9.4476 15.3375 8.95994 15.1355ZM17.111 17.6088C17.4488 17.0676 17.6279 16.4424 17.6279 15.8044C17.6279 15.1664 17.4488 14.5412 17.111 14C16.8683 13.5141 16.4902 13.1089 16.0222 12.8333C15.548 12.5645 15.0116 12.4251 14.4666 12.4288C13.8791 12.4161 13.299 12.5611 12.7866 12.8488C12.3062 13.1166 11.9122 13.5159 11.651 14C11.376 14.5501 11.2372 15.1583 11.2466 15.7733C11.2496 16.3136 11.3774 16.846 11.6199 17.3288C11.8578 17.809 12.2309 18.2091 12.6933 18.48C13.163 18.7668 13.6988 18.9275 14.2488 18.9466L15.5866 20.5022H17.4688L15.5555 18.7911C16.1998 18.5978 16.7523 18.1779 17.111 17.6088ZM15.5555 17.22C15.4138 17.3957 15.2333 17.5364 15.0282 17.6308C14.8231 17.7253 14.599 17.771 14.3733 17.7644C14.1458 17.7723 13.9198 17.7255 13.7141 17.6281C13.5084 17.5307 13.3291 17.3854 13.191 17.2044C12.8626 16.755 12.7029 16.2043 12.7399 15.6488C12.7037 15.0935 12.8633 14.5431 13.191 14.0933C13.3375 13.9128 13.5224 13.7674 13.7324 13.6678C13.9424 13.5682 14.172 13.5169 14.4044 13.5177C14.6316 13.5078 14.8576 13.5553 15.0615 13.6559C15.2654 13.7565 15.4407 13.907 15.571 14.0933C15.8776 14.5518 16.0252 15.0983 15.991 15.6488C16.0455 16.2084 15.8903 16.7683 15.5555 17.22Z" fill="#F2F2F2"/>
<defs>
<linearGradient id="paint0_linear_149_62179" x1="15.4124" y1="24.8002" x2="11.6916" y2="3.70685" gradientUnits="userSpaceOnUse">
<stop offset="0.15" stop-color="#0078D4"/>
<stop offset="0.8" stop-color="#5EA0EF"/>
<stop offset="1" stop-color="#83B9F9"/>
</linearGradient>
</defs>
</svg>
